<?xml version="1.0" encoding="UTF-8" standalone="no"?>
<!-- Created with Inkscape (http://www.inkscape.org/) -->

<svg
   xmlns:dc="http://purl.org/dc/elements/1.1/"
   xmlns:cc="http://creativecommons.org/ns#"
   xmlns:rdf="http://www.w3.org/1999/02/22-rdf-syntax-ns#"
   xmlns:svg="http://www.w3.org/2000/svg"
   xmlns="http://www.w3.org/2000/svg"
   xmlns:xlink="http://www.w3.org/1999/xlink"
   xmlns:sodipodi="http://sodipodi.sourceforge.net/DTD/sodipodi-0.dtd"
   xmlns:inkscape="http://www.inkscape.org/namespaces/inkscape"
   width="118.84017mm"
   height="58.543873mm"
   viewBox="0 0 118.84017 58.543873"
   version="1.1"
   id="svg8"
   inkscape:version="0.92.4 (5da689c313, 2019-01-14)"
   sodipodi:docname="path_iccst16_logo.svg">
  <defs
     id="defs2">
    <linearGradient
       inkscape:collect="always"
       id="linearGradient998">
      <stop
         style="stop-color:#00327a;stop-opacity:1"
         offset="0"
         id="stop994" />
      <stop
         style="stop-color:#fbffff;stop-opacity:0.40465117"
         offset="1"
         id="stop996" />
    </linearGradient>
    <linearGradient
       inkscape:collect="always"
       id="linearGradient978">
      <stop
         style="stop-color:#00283f;stop-opacity:1"
         offset="0"
         id="stop974" />
      <stop
         style="stop-color:#0081a8;stop-opacity:1"
         offset="1"
         id="stop976" />
    </linearGradient>
    <linearGradient
       inkscape:collect="always"
       xlink:href="#linearGradient978"
       id="linearGradient980"
       x1="271.5918"
       y1="498.10153"
       x2="307.84995"
       y2="434.37637"
       gradientUnits="userSpaceOnUse" />
    <linearGradient
       inkscape:collect="always"
       xlink:href="#linearGradient998"
       id="linearGradient1000"
       x1="23.114073"
       y1="133.30171"
       x2="47.415512"
       y2="109.63353"
       gradientUnits="userSpaceOnUse"
       gradientTransform="matrix(0.99303621,0,0,0.99717514,39.491774,5.6209905)" />
  </defs>
  <sodipodi:namedview
     id="base"
     pagecolor="#ffffff"
     bordercolor="#666666"
     borderopacity="1.0"
     inkscape:pageopacity="0.0"
     inkscape:pageshadow="2"
     inkscape:zoom="2.3634905"
     inkscape:cx="215.44766"
     inkscape:cy="59.678141"
     inkscape:document-units="mm"
     inkscape:current-layer="g1035"
     showgrid="false"
     inkscape:window-width="1920"
     inkscape:window-height="1137"
     inkscape:window-x="-8"
     inkscape:window-y="-8"
     inkscape:window-maximized="1"
     width="120mm"
     fit-margin-left="4"
     fit-margin-top="4"
     fit-margin-right="4"
     fit-margin-bottom="4" />
  <metadata
     id="metadata5">
    <rdf:RDF>
      <cc:Work
         rdf:about="">
        <dc:format>image/svg+xml</dc:format>
        <dc:type
           rdf:resource="http://purl.org/dc/dcmitype/StillImage" />
        <dc:title></dc:title>
      </cc:Work>
    </rdf:RDF>
  </metadata>
  <g
     inkscape:label="Ebene 1"
     inkscape:groupmode="layer"
     id="layer1"
     style="display:inline"
     transform="translate(-55.843189,-104.09505)">
    <g
       id="g1035">
      <g
         aria-label="52"
         style="font-style:normal;font-variant:normal;font-weight:bold;font-stretch:normal;font-size:4.23333311px;line-height:1.25;font-family:'PT Sans';-inkscape-font-specification:'PT Sans Bold';letter-spacing:0px;word-spacing:0px;fill:#000000;fill-opacity:1;stroke:none;stroke-width:0.26458332"
         id="text879">
        <path
           d="m 85.188601,151.76905 q 0.372533,0 0.570089,-0.18062 0.197555,-0.18062 0.197555,-0.49671 0,-0.33867 -0.231422,-0.49671 -0.231422,-0.15805 -0.6604,-0.15805 l -0.445911,0.0169 v -2.06587 h 1.941689 v 0.68862 H 85.25069 v 0.762 l 0.231422,-0.0226 q 0.276578,0.0113 0.496711,0.1016 0.225778,0.0903 0.383822,0.254 0.158045,0.15804 0.242711,0.38946 0.08467,0.22578 0.08467,0.508 0,0.33302 -0.112889,0.58702 -0.112889,0.254 -0.316089,0.42334 -0.197555,0.16933 -0.468489,0.254 -0.270933,0.0847 -0.592666,0.0847 -0.254,0 -0.485422,-0.0452 -0.225778,-0.0395 -0.383823,-0.11289 l 0.197556,-0.6096 q 0.129822,0.0564 0.282222,0.0903 0.158045,0.0282 0.378178,0.0282 z"
           style="font-style:normal;font-variant:normal;font-weight:bold;font-stretch:normal;font-size:5.64444447px;font-family:'PT Sans';-inkscape-font-specification:'PT Sans, Bold';font-variant-ligatures:normal;font-variant-caps:normal;font-variant-numeric:normal;font-feature-settings:normal;text-align:start;writing-mode:lr-tb;text-anchor:start;stroke-width:0.26458332"
           id="path894"
           inkscape:connector-curvature="0" />
        <path
           d="m 89.824983,149.35323 q 0,0.28787 -0.107245,0.58138 -0.1016,0.29351 -0.265288,0.57573 -0.158045,0.28222 -0.3556,0.54751 -0.191912,0.25965 -0.378178,0.47978 l -0.299156,0.23142 v 0.0282 l 0.4064,-0.079 h 1.083734 v 0.62089 h -2.376312 v -0.37818 q 0.135467,-0.14111 0.3048,-0.32737 0.169334,-0.19191 0.338667,-0.40076 0.174978,-0.21449 0.338667,-0.44027 0.163689,-0.22577 0.293511,-0.45155 0.129822,-0.23142 0.2032,-0.44591 0.07902,-0.21449 0.07902,-0.4064 0,-0.23142 -0.135467,-0.37818 -0.129822,-0.1524 -0.417688,-0.1524 -0.180623,0 -0.372534,0.079 -0.186266,0.0734 -0.316089,0.19191 l -0.293511,-0.51929 q 0.220134,-0.18062 0.496711,-0.28786 0.282223,-0.11289 0.6604,-0.11289 0.242711,0 0.445911,0.0677 0.2032,0.0677 0.349956,0.19756 0.146756,0.12982 0.231422,0.32738 0.08467,0.19191 0.08467,0.45155 z"
           style="font-style:normal;font-variant:normal;font-weight:bold;font-stretch:normal;font-size:5.64444447px;font-family:'PT Sans';-inkscape-font-specification:'PT Sans, Bold';font-variant-ligatures:normal;font-variant-caps:normal;font-variant-numeric:normal;font-feature-settings:normal;text-align:start;writing-mode:lr-tb;text-anchor:start;stroke-width:0.26458332"
           id="path896"
           inkscape:connector-curvature="0" />
      </g>
      <g
         aria-label="ICCST-XVI"
         style="font-style:normal;font-variant:normal;font-weight:bold;font-stretch:normal;font-size:25.39999962px;line-height:1.25;font-family:'PT Sans';-inkscape-font-specification:'PT Sans, Bold';font-variant-ligatures:normal;font-variant-caps:normal;font-variant-numeric:normal;font-feature-settings:normal;text-align:start;letter-spacing:0px;word-spacing:0px;writing-mode:lr-tb;text-anchor:start;fill:#000000;fill-opacity:1;stroke:none;stroke-width:0.26458332"
         id="text2307">
        <path
           d="m 100.32955,118.90154 h 2.41652 v 12.34722 h -2.41652 z"
           style="font-style:normal;font-variant:normal;font-weight:bold;font-stretch:normal;font-size:17.63888931px;font-family:'PT Sans';-inkscape-font-specification:'PT Sans, Bold';font-variant-ligatures:normal;font-variant-caps:normal;font-variant-numeric:normal;font-feature-settings:normal;text-align:start;writing-mode:lr-tb;text-anchor:start;stroke-width:0.26458332"
           id="path852"
           inkscape:connector-curvature="0" />
        <path
           d="m 113.47328,130.73724 q -0.56445,0.40569 -1.44639,0.58208 -0.86431,0.17639 -1.78153,0.17639 -1.11125,0 -2.11667,-0.33514 -0.98778,-0.35278 -1.74625,-1.11125 -0.75847,-0.77611 -1.21708,-1.99319 -0.44097,-1.23473 -0.44097,-2.98098 0,-1.8168 0.49389,-3.03389 0.51152,-1.23472 1.30527,-1.97555 0.81139,-0.75847 1.79917,-1.07597 0.98778,-0.33514 1.97556,-0.33514 1.05833,0 1.78152,0.14111 0.74084,0.14111 1.21709,0.33514 l -0.47625,2.04611 q -0.4057,-0.19403 -0.97014,-0.28222 -0.54681,-0.0882 -1.34056,-0.0882 -1.46403,0 -2.36361,1.0407 -0.88194,1.04069 -0.88194,3.22791 0,0.9525 0.21166,1.74625 0.21167,0.77611 0.635,1.34056 0.44098,0.5468 1.07598,0.8643 0.65263,0.29987 1.4993,0.29987 0.79375,0 1.34056,-0.15875 0.5468,-0.15875 0.9525,-0.4057 z"
           style="font-style:normal;font-variant:normal;font-weight:bold;font-stretch:normal;font-size:17.63888931px;font-family:'PT Sans';-inkscape-font-specification:'PT Sans, Bold';font-variant-ligatures:normal;font-variant-caps:normal;font-variant-numeric:normal;font-feature-settings:normal;text-align:start;writing-mode:lr-tb;text-anchor:start;stroke-width:0.26458332"
           id="path854"
           inkscape:connector-curvature="0" />
        <path
           d="m 122.74058,130.73724 q -0.56444,0.40569 -1.44639,0.58208 -0.8643,0.17639 -1.78152,0.17639 -1.11125,0 -2.11667,-0.33514 -0.98778,-0.35278 -1.74625,-1.11125 -0.75847,-0.77611 -1.21708,-1.99319 -0.44098,-1.23473 -0.44098,-2.98098 0,-1.8168 0.49389,-3.03389 0.51153,-1.23472 1.30528,-1.97555 0.81139,-0.75847 1.79917,-1.07597 0.98777,-0.33514 1.97555,-0.33514 1.05834,0 1.78153,0.14111 0.74083,0.14111 1.21708,0.33514 l -0.47625,2.04611 q -0.40569,-0.19403 -0.97014,-0.28222 -0.5468,-0.0882 -1.34055,-0.0882 -1.46403,0 -2.36361,1.0407 -0.88195,1.04069 -0.88195,3.22791 0,0.9525 0.21167,1.74625 0.21167,0.77611 0.635,1.34056 0.44097,0.5468 1.07597,0.8643 0.65264,0.29987 1.49931,0.29987 0.79375,0 1.34055,-0.15875 0.54681,-0.15875 0.9525,-0.4057 z"
           style="font-style:normal;font-variant:normal;font-weight:bold;font-stretch:normal;font-size:17.63888931px;font-family:'PT Sans';-inkscape-font-specification:'PT Sans, Bold';font-variant-ligatures:normal;font-variant-caps:normal;font-variant-numeric:normal;font-feature-settings:normal;text-align:start;writing-mode:lr-tb;text-anchor:start;stroke-width:0.26458332"
           id="path856"
           inkscape:connector-curvature="0" />
        <path
           d="m 129.55967,127.93265 q 0,-0.56444 -0.42334,-0.91722 -0.40569,-0.35278 -1.04069,-0.635 -0.61736,-0.29986 -1.3582,-0.59972 -0.72319,-0.3175 -1.35819,-0.75847 -0.61736,-0.45862 -1.04069,-1.12889 -0.4057,-0.67028 -0.4057,-1.71098 0,-0.89958 0.29986,-1.55222 0.29986,-0.67028 0.84667,-1.11125 0.56444,-0.44097 1.32292,-0.65264 0.75847,-0.21166 1.69333,-0.21166 1.07597,0 2.02847,0.19402 0.9525,0.17639 1.56986,0.52917 l -0.75847,2.02847 q -0.38806,-0.24694 -1.16417,-0.44097 -0.77611,-0.21167 -1.67569,-0.21167 -0.84667,0 -1.30528,0.33514 -0.44097,0.33514 -0.44097,0.89959 0,0.52916 0.40569,0.88194 0.42334,0.35278 1.0407,0.65264 0.635,0.29986 1.35819,0.61736 0.74084,0.3175 1.3582,0.77611 0.635,0.44098 1.04069,1.11125 0.42333,0.65264 0.42333,1.64042 0,0.98778 -0.33513,1.71097 -0.3175,0.70556 -0.91723,1.18181 -0.58208,0.47625 -1.42875,0.70555 -0.82902,0.22931 -1.83444,0.22931 -1.32292,0 -2.32833,-0.24695 -1.00542,-0.24694 -1.48167,-0.49388 l 0.77611,-2.06375 q 0.19403,0.10583 0.49389,0.2293 0.3175,0.12347 0.70555,0.22931 0.38806,0.10583 0.81139,0.17639 0.44098,0.0705 0.89959,0.0705 1.07597,0 1.64041,-0.35278 0.58209,-0.37041 0.58209,-1.11125 z"
           style="font-style:normal;font-variant:normal;font-weight:bold;font-stretch:normal;font-size:17.63888931px;font-family:'PT Sans';-inkscape-font-specification:'PT Sans, Bold';font-variant-ligatures:normal;font-variant-caps:normal;font-variant-numeric:normal;font-feature-settings:normal;text-align:start;writing-mode:lr-tb;text-anchor:start;stroke-width:0.26458332"
           id="path858"
           inkscape:connector-curvature="0" />
        <path
           d="m 142.33546,121.05349 h -3.59833 v 10.19527 h -2.41653 v -10.19527 h -3.61597 v -2.15195 h 9.63083 z"
           style="font-style:normal;font-variant:normal;font-weight:bold;font-stretch:normal;font-size:17.63888931px;font-family:'PT Sans';-inkscape-font-specification:'PT Sans, Bold';font-variant-ligatures:normal;font-variant-caps:normal;font-variant-numeric:normal;font-feature-settings:normal;text-align:start;writing-mode:lr-tb;text-anchor:start;stroke-width:0.26458332"
           id="path860"
           inkscape:connector-curvature="0" />
        <path
           d="m 141.21456,125.16335 h 4.42736 v 2.02847 h -4.42736 z"
           style="font-style:normal;font-variant:normal;font-weight:bold;font-stretch:normal;font-size:17.63888931px;font-family:'PT Sans';-inkscape-font-specification:'PT Sans, Bold';font-variant-ligatures:normal;font-variant-caps:normal;font-variant-numeric:normal;font-feature-settings:normal;text-align:start;writing-mode:lr-tb;text-anchor:start;stroke-width:0.26458332"
           id="path862"
           inkscape:connector-curvature="0" />
        <path
           d="m 149.77742,124.96932 -3.43959,-6.06778 h 2.91042 l 1.905,3.56306 0.42333,1.25236 0.4057,-1.25236 1.99319,-3.56306 h 2.6282 l -3.56306,5.94431 3.73945,6.40291 h -2.87514 l -2.16959,-3.81 -0.47625,-1.30527 -0.45861,1.30527 -2.18722,3.81 h -2.62819 z"
           style="font-style:normal;font-variant:normal;font-weight:bold;font-stretch:normal;font-size:17.63888931px;font-family:'PT Sans';-inkscape-font-specification:'PT Sans, Bold';font-variant-ligatures:normal;font-variant-caps:normal;font-variant-numeric:normal;font-feature-settings:normal;text-align:start;writing-mode:lr-tb;text-anchor:start;stroke-width:0.26458332"
           id="path864"
           inkscape:connector-curvature="0" />
        <path
           d="m 161.46594,126.15113 0.3175,2.09902 h 0.0882 l 0.35278,-2.11666 2.36361,-7.23195 h 2.54 l -4.58611,12.43542 h -1.72861 l -4.62139,-12.43542 h 2.80458 z"
           style="font-style:normal;font-variant:normal;font-weight:bold;font-stretch:normal;font-size:17.63888931px;font-family:'PT Sans';-inkscape-font-specification:'PT Sans, Bold';font-variant-ligatures:normal;font-variant-caps:normal;font-variant-numeric:normal;font-feature-settings:normal;text-align:start;writing-mode:lr-tb;text-anchor:start;stroke-width:0.26458332"
           id="path866"
           inkscape:connector-curvature="0" />
        <path
           d="m 168.26683,118.90154 h 2.41653 v 12.34722 h -2.41653 z"
           style="font-style:normal;font-variant:normal;font-weight:bold;font-stretch:normal;font-size:17.63888931px;font-family:'PT Sans';-inkscape-font-specification:'PT Sans, Bold';font-variant-ligatures:normal;font-variant-caps:normal;font-variant-numeric:normal;font-feature-settings:normal;text-align:start;writing-mode:lr-tb;text-anchor:start;stroke-width:0.26458332"
           id="path868"
           inkscape:connector-curvature="0" />
      </g>
      <circle
         r="16.717529"
         cy="124.97258"
         cx="76.720718"
         id="path826"
         style="display:inline;fill:none;fill-opacity:1;stroke:#012e48;stroke-width:0.31999999;stroke-linecap:round;stroke-linejoin:round;stroke-miterlimit:4;stroke-dasharray:none;stroke-dashoffset:16.89448738;stroke-opacity:1" />
      <path
         inkscape:connector-curvature="0"
         id="path2295"
         d="m 75.960606,141.54764 c -2.549847,-0.16737 -4.564594,-0.69687 -6.681737,-1.75604 -1.613821,-0.80737 -2.981777,-1.80003 -4.294171,-3.11609 -0.840277,-0.84262 -1.43483,-1.56286 -2.043237,-2.47517 -2.68995,-4.03359 -3.491915,-8.97259 -2.213282,-13.63075 0.124894,-0.455 0.165108,-0.57745 0.165108,-0.50276 0,0.0144 -0.04412,0.23867 -0.09804,0.49834 -0.230947,1.1122 -0.320024,2.12554 -0.2926,3.32859 0.03397,1.49022 0.251,2.78956 0.696865,4.17206 0.701241,2.17435 1.834949,4.08259 3.479845,5.8572 0.952802,1.02795 2.465358,2.21677 3.764293,2.95862 4.296423,2.45379 9.519079,2.97236 14.232104,1.41314 2.377048,-0.78641 4.375036,-1.95914 6.210681,-3.64539 1.309746,-1.20315 2.537613,-2.83323 3.34128,-4.43578 0.134914,-0.26902 0.517673,-1.13093 0.581107,-1.30855 0.05537,-0.15503 0.0093,0.0832 -0.07849,0.40617 -1.451584,5.33862 -5.480063,9.61768 -10.706052,11.372 -1.289463,0.43287 -2.504123,0.68905 -3.875408,0.81736 -0.384016,0.0359 -1.870712,0.0679 -2.188271,0.0471 z"
         style="fill:#d2e6eb;fill-opacity:1;stroke:#000000;stroke-width:0;stroke-linecap:round;stroke-linejoin:round;stroke-miterlimit:4;stroke-dasharray:none;stroke-dashoffset:0;stroke-opacity:1" />
      <path
         inkscape:transform-center-y="-1.8973621e-06"
         d="m 76.588367,158.48895 -1.751355,-4.69643 -5.276572,0.6444 3.191553,-3.86493 -3.196355,-4.24745 4.942907,0.8315 2.080218,-4.89185 1.751354,4.69644 5.276573,-0.64441 -3.191553,3.86494 3.196355,4.24744 -4.942908,-0.8315 z"
         inkscape:randomized="0"
         inkscape:rounded="0"
         inkscape:flatsided="false"
         sodipodi:arg2="2.0434383"
         sodipodi:arg1="1.5702044"
         sodipodi:r2="3.8365519"
         sodipodi:r1="8.11238"
         sodipodi:cy="150.37657"
         sodipodi:cx="76.583565"
         sodipodi:sides="6"
         id="path859"
         style="opacity:1;fill:#012e48;fill-opacity:1;stroke:#000000;stroke-width:0.30000001;stroke-linecap:round;stroke-linejoin:round;stroke-miterlimit:4;stroke-dasharray:none;stroke-dashoffset:0;stroke-opacity:1"
         sodipodi:type="star" />
      <path
         inkscape:transform-center-y="-1.7053726e-06"
         inkscape:transform-center-x="2.0321285e-06"
         d="m 161.28621,138.7923 -0.69643,-2.20938 -2.26561,0.48309 1.56517,-1.70782 -1.55118,-1.72053 2.2616,0.50157 0.71443,-2.20362 0.69643,2.20938 2.26561,-0.48309 -1.56516,1.70781 1.55117,1.72053 -2.26159,-0.50156 z"
         inkscape:randomized="0"
         inkscape:rounded="0"
         inkscape:flatsided="false"
         sodipodi:arg2="2.0984767"
         sodipodi:arg1="1.5748779"
         sodipodi:r2="1.4108762"
         sodipodi:r1="3.428375"
         sodipodi:cy="135.36395"
         sodipodi:cx="161.3002"
         sodipodi:sides="6"
         id="path881"
         style="opacity:1;fill:#012e48;fill-opacity:1;stroke:#000000;stroke-width:0.30000001;stroke-linecap:round;stroke-linejoin:round;stroke-miterlimit:4;stroke-dasharray:none;stroke-dashoffset:0;stroke-opacity:1"
         sodipodi:type="star" />
      <path
         inkscape:connector-curvature="0"
         id="path909"
         d="m 76.3558,136.88945 c -6.091211,-0.92752 -10.84566,-5.32611 -12.105045,-11.19901 -0.594717,-2.77335 -0.25573,-5.90216 0.917996,-8.47294 l 0.233519,-0.51147 0.325607,0.69769 c 0.544181,1.16604 1.338035,2.56275 2.190448,3.85388 4.412647,6.68374 11.002079,11.03124 18.365523,12.11699 0.565978,0.0835 1.180441,0.1519 1.365472,0.1521 0.185031,2.4e-4 0.33569,0.0271 0.334801,0.0597 -0.0021,0.0747 -1.172607,0.94294 -1.700273,1.26116 -1.555438,0.93806 -3.015327,1.51185 -4.815772,1.8928 -0.821152,0.17374 -1.213048,0.20803 -2.664639,0.23316 -1.212715,0.021 -1.91624,-0.003 -2.447637,-0.0841 z"
         style="opacity:1;fill:#042a41;fill-opacity:0;stroke:none;stroke-width:0.00598358;stroke-linecap:round;stroke-linejoin:round;stroke-miterlimit:4;stroke-dasharray:none;stroke-dashoffset:0;stroke-opacity:1" />
      <path
         sodipodi:nodetypes="cscscccssccccc"
         inkscape:label="Nachtschatten"
         inkscape:connector-curvature="0"
         id="path913"
         d="m 76.718062,136.65511 c -6.035418,-0.91632 -10.746319,-5.26172 -11.994169,-11.06365 -0.589269,-2.73982 -0.253386,-5.8308 0.909589,-8.37052 0,0 0.128927,-0.25559 0.31457,-0.25636 0.254222,-9.8e-4 0.239433,0.44034 0.239433,0.44034 0.539197,1.15194 1.32578,2.53177 2.170385,3.8073 4.372229,6.60293 10.901305,10.89789 18.197303,11.97051 0.560793,0.0824 0.996917,0.16941 1.180254,0.16963 0.183336,2.1e-4 0.163375,0.13617 0.116554,0.19592 -0.362662,0.46279 -0.773971,0.77524 -1.296804,1.08962 -1.54119,0.92672 -2.987709,1.49358 -4.771662,1.86993 -0.813631,0.17163 -1.201939,0.20551 -2.640232,0.23032 -1.201607,0.0207 -1.898687,-0.003 -2.425217,-0.0831 z"
         style="display:inline;opacity:1;fill:#001342;fill-opacity:0.80930283;stroke:none;stroke-width:0.00592001;stroke-linecap:round;stroke-linejoin:round;stroke-miterlimit:4;stroke-dasharray:none;stroke-dashoffset:0;stroke-opacity:1" />
      <path
         transform="scale(0.26458333)"
         inkscape:connector-curvature="0"
         id="path955"
         d="m 291.40742,518.12975 c -21.25328,-2.31944 -38.84431,-16.28265 -45.47429,-36.09605 -3.58786,-10.72216 -3.68446,-22.28184 -0.27475,-32.87775 6.09745,-18.94822 21.92624,-32.71686 41.75384,-36.31947 3.61187,-0.65626 10.86236,-0.87843 14.61605,-0.44785 21.07121,2.41703 38.38627,16.35618 44.99473,36.22213 2.02583,6.08994 2.39751,8.60238 2.4121,16.30525 0.0105,5.52885 -0.0972,7.45679 -0.54806,9.81043 -0.30861,1.61112 -0.62075,2.86968 -0.69363,2.7968 -0.0729,-0.0729 0.0298,-1.52571 0.22824,-3.22849 0.91168,-7.82378 -1.16147,-20.4329 -4.49342,-27.32948 -1.40747,-2.91323 -4.28766,-7.34748 -6.60709,-10.17209 -2.10953,-2.56897 -6.40177,-6.7456 -8.81553,-8.57804 -7.33106,-5.56553 -17.13549,-10.09301 -25.87898,-11.95037 -2.59402,-0.55105 -4.10578,-0.6684 -8.67619,-0.67353 -6.3306,-0.007 -9.61514,0.53253 -14.64681,2.40635 -4.37037,1.62754 -11.06096,5.10732 -11.4464,5.95327 -0.82935,1.82022 1.6849,2.19932 4.27074,0.64394 2.2449,-1.3503 8.69733,-4.24047 11.05342,-4.95105 4.62212,-1.39398 8.50582,-1.08144 10.86669,0.87451 1.05297,0.87238 1.90159,2.25867 1.5797,2.58056 -0.074,0.074 -0.71722,-0.20385 -1.42947,-0.61736 -3.25981,-1.89252 -6.48772,-2.38267 -10.09365,-1.53269 -3.41954,0.80604 -5.37886,2.49747 -4.92103,4.2482 0.25651,0.9809 0.93086,1.05038 3.07118,0.31643 1.44583,-0.4958 2.66497,-0.67781 4.56716,-0.68186 3.06716,-0.007 3.82277,0.3948 5.08802,2.70234 1.21833,2.22198 1.27264,3.0738 0.40016,6.2764 -0.91005,3.34049 -0.74711,4.12716 0.82287,3.97271 1.21701,-0.11972 1.76482,-1.0634 2.74904,-4.73556 0.59198,-2.2087 0.72039,-3.23333 0.5804,-4.63126 -0.16296,-1.62738 -0.11322,-1.85701 0.5325,-2.45811 1.73489,-1.61502 5.347,-2.01889 8.72499,-0.97554 3.4911,1.0783 6.48041,4.50669 6.48041,7.43229 0,1.58641 -0.53444,2.6344 -2.03461,3.98972 -2.22922,2.01396 -4.75269,3.18327 -7.54362,3.49552 -2.07914,0.23261 -2.61969,0.40379 -3.08337,0.97641 -1.17038,1.44536 0.0359,4.39321 2.32389,5.67916 0.96421,0.54192 1.79378,0.69419 4.35706,0.79981 2.86482,0.11803 3.37828,0.0543 5.39611,-0.66944 1.22651,-0.43993 3.22535,-1.28943 4.44186,-1.88778 1.87205,-0.92077 2.49135,-1.43535 4.03142,-3.34974 2.25865,-2.80761 4.48331,-4.95132 5.6321,-5.42717 2.59118,-1.0733 8.26256,2.32132 11.87153,7.10576 2.46374,3.2662 4.75463,8.02806 5.71207,11.87314 0.45658,1.83363 0.91584,3.93971 1.02059,4.68018 0.18007,1.27296 0.10414,1.18333 -1.39384,-1.64548 -3.73536,-7.05393 -6.7895,-10.07705 -11.68747,-11.56876 -1.70687,-0.51984 -2.55485,-0.5978 -5.08604,-0.4676 -4.24547,0.21838 -8.31992,1.58588 -13.90021,4.6653 -7.70171,4.25012 -12.87878,5.21186 -16.31723,3.03126 -1.75269,-1.11153 -2.64997,-2.52983 -3.59513,-5.6827 -0.95755,-3.19424 -1.33361,-3.74346 -2.38284,-3.48012 -0.96002,0.24095 -1.2619,1.15055 -1.19155,3.59034 0.25128,8.71433 6.63335,14.12909 15.36303,13.03448 4.41792,-0.55396 8.22114,-2.00497 12.0842,-4.61038 4.99253,-3.36718 11.21138,-5.84171 14.68104,-5.84171 3.03386,0 5.93615,1.68113 8.71189,5.04628 1.9931,2.41634 4.14569,6.52634 4.74117,9.05246 1.62379,6.88838 -1.13846,20.55289 -6.27502,31.04172 -1.20513,2.46085 -2.11323,4.55219 -2.01801,4.64741 0.0952,0.0952 -0.86282,1.17926 -2.12898,2.40898 -8.09767,7.86463 -17.83154,12.81965 -28.91034,14.7168 -2.52213,0.4319 -11.31375,0.76198 -13.61264,0.51109 z m 17.54432,-2.85011 c 1.53501,-0.4599 3.05734,-1.80383 5.86472,-5.17744 4.42544,-5.31802 5.82277,-8.45058 5.87648,-13.17403 0.0293,-2.57669 -0.0634,-3.18955 -0.66787,-4.41712 -1.19134,-2.41927 -4.54515,-3.90278 -6.92492,-3.06315 -0.70081,0.24726 -1.53985,0.44956 -1.86452,0.44956 -1.03519,0 -2.65491,-0.95641 -4.47768,-2.64398 -1.62337,-1.50295 -1.95075,-1.67193 -3.92357,-2.02518 -1.18383,-0.21197 -3.21113,-0.39249 -4.50511,-0.40114 -2.82848,-0.0189 -4.15288,0.59098 -5.57084,2.56545 -1.64534,2.29111 -2.21396,3.92335 -2.22751,6.39418 -0.021,3.82894 1.42236,5.95621 6.08165,8.96333 1.25088,0.80731 2.8284,1.94886 3.50562,2.53676 1.51279,1.31327 3.06665,4.36584 3.40359,6.68636 0.32861,2.26314 0.52517,2.69453 1.45896,3.2019 0.96699,0.52541 2.43702,0.56409 3.971,0.1045 z M 277.59156,494.2749 c 2.56351,-1.25422 6.55048,-5.98992 6.07847,-7.21998 -0.24193,-0.63046 -1.15308,-0.22434 -4.41009,1.96566 -3.72012,2.50141 -4.42148,2.75967 -7.44875,2.74281 -3.26671,-0.0182 -6.25191,-0.66157 -9.45713,-2.03824 -1.625,-0.69796 -2.66035,-0.99376 -2.8421,-0.81201 -1.17943,1.17943 3.55032,3.99361 9.30744,5.53789 3.93145,1.05457 6.35621,1.00588 8.77216,-0.17613 z m 54.97348,0.32948 c 3.61019,-2.43291 8.89139,-12.11146 10.27505,-18.83051 0.55177,-2.67938 0.62314,-7.88378 0.13947,-10.16998 -0.79339,-3.75015 -2.95301,-6.99384 -5.92708,-8.90229 -4.09239,-2.62608 -11.37474,-2.65306 -14.13886,-0.0524 -0.86729,0.81602 -1.21049,1.41982 -1.37855,2.42537 -0.19484,1.16576 -0.45292,1.52347 -1.99598,2.76659 -2.87939,2.31969 -3.00064,2.63144 -3.00064,7.71534 0,4.30287 0.01,4.36777 0.97523,6.32843 2.51323,5.10508 6.59377,6.02226 11.88947,2.6724 0.49365,-0.31226 1.33481,-0.65904 1.86925,-0.77062 0.82081,-0.17137 1.10777,-0.0668 1.84787,0.67329 0.50658,0.50658 0.96815,1.36653 1.09425,2.03872 0.26848,1.43113 -0.27747,4.84503 -1.2873,8.04951 -0.63146,2.00385 -0.9895,2.61936 -2.21348,3.80532 -1.50672,1.45989 -1.71807,1.9532 -1.10116,2.57011 0.56224,0.56224 1.85121,0.42284 2.95246,-0.31929 z m -53.21131,-11.61947 c 8.13852,-0.87409 16.94701,-4.28823 21.57587,-8.36271 1.6705,-1.47044 2.29539,-2.55664 2.29539,-3.98997 0,-1.32428 -0.86006,-1.97648 -2.60638,-1.97648 -1.90659,0 -3.76451,0.83269 -8.5098,3.81397 -6.28916,3.95122 -7.16585,4.43886 -9.48294,5.27468 -2.9647,1.06942 -5.17792,1.60338 -8.17386,1.972 -2.34492,0.28852 -2.95949,0.2467 -6.38172,-0.43424 -4.37838,-0.87119 -5.49632,-0.92524 -6.29921,-0.30453 -0.56991,0.44059 -0.56757,0.46013 0.12555,1.04712 0.38847,0.32899 0.87481,0.59816 1.08077,0.59816 0.20597,0 1.35214,0.40316 2.54706,0.8959 4.20543,1.73418 7.79247,2.11446 13.82927,1.4661 z m -7.92906,-21.66066 c 2.71258,-1.34063 6.47108,-4.84724 6.79985,-6.34415 0.24057,-1.09532 1.21106,-2.06105 2.35713,-2.34557 0.66328,-0.16467 1.01287,-0.05 1.64548,0.53962 1.38817,1.29389 2.08587,1.53075 2.91284,0.9889 0.82639,-0.54148 1.1837,-1.61544 0.90581,-2.72263 -0.31711,-1.26347 -4.4682,-5.36571 -6.17074,-6.09812 -2.49416,-1.07296 -5.02699,-0.77039 -6.29056,0.75147 -0.25602,0.30834 -0.4939,1.5136 -0.5941,3.01016 -0.14804,2.21113 -0.26314,2.59614 -1.00877,3.37442 -0.46292,0.48318 -1.73402,1.30981 -2.82468,1.83697 -3.85156,1.8616 -7.9146,1.41793 -10.84714,-1.18448 l -1.28436,-1.13976 -0.16927,-3.26085 c -0.0931,-1.79347 -0.2646,-3.41289 -0.38111,-3.59871 -0.36812,-0.5871 -1.36234,-0.66817 -1.83183,-0.14939 -2.10423,2.32515 -0.70458,9.48051 2.5513,13.04297 4.22733,4.62538 9.20956,5.78047 14.23015,3.29915 z m -1.74606,-9.15481 c 0.52167,-0.18186 1.08554,-0.58672 1.25304,-0.8997 0.25616,-0.47863 0.065,-0.78968 -1.20303,-1.95775 -0.82917,-0.7638 -1.50758,-1.65325 -1.50758,-1.97657 0,-0.63517 1.17866,-2.91317 1.5073,-2.91317 0.11022,0 0.55892,-0.33226 0.99711,-0.73836 0.68652,-0.63625 0.77104,-0.89882 0.61116,-1.89866 -0.16365,-1.02338 -0.0872,-1.23768 0.6481,-1.81604 0.45851,-0.36066 1.04458,-0.61581 1.3024,-0.56701 0.63348,0.11992 0.76319,1.53561 0.18469,2.01573 -0.63446,0.52655 -0.58311,1.42359 0.10249,1.79051 0.43295,0.23171 0.74419,0.16326 1.3211,-0.29054 l 0.75472,-0.59366 0.91662,0.77128 c 1.24606,1.04849 1.64041,0.71485 1.44082,-1.21901 -0.18297,-1.77283 -1.13877,-3.87024 -1.96525,-4.31256 -0.30459,-0.16301 -1.45394,-0.3886 -2.55409,-0.50132 l -2.0003,-0.20494 1.20336,-0.53875 c 0.66184,-0.29632 1.81235,-1.16537 2.55668,-1.93123 2.09621,-2.15684 2.17022,-3.77521 0.18165,-3.97224 -1.9279,-0.19101 -7.20856,3.17277 -7.20856,4.59187 0,0.69271 1.36749,1.93266 2.15545,1.95442 0.67729,0.0187 0.67801,0.0225 0.052,0.27532 -0.3491,0.141 -0.7219,0.60368 -0.82844,1.02817 -0.25457,1.01426 -0.71627,0.98612 -0.83559,-0.0509 -0.083,-0.72159 -0.22253,-0.82275 -1.13459,-0.82275 -0.8513,0 -1.08973,0.14161 -1.31449,0.78073 -0.39745,1.13014 -0.0157,2.36065 0.73228,2.36065 0.33568,0 0.52711,0.13463 0.42541,0.29918 -0.10169,0.16455 -0.84216,0.29918 -1.64548,0.29918 -0.80332,0 -1.54379,-0.13463 -1.64548,-0.29918 -0.1017,-0.16455 -0.0193,-0.29918 0.18317,-0.29918 0.57737,0 1.46231,-0.93332 1.46231,-1.54226 0,-0.8362 -1.08733,-1.74871 -2.08373,-1.74871 -0.96555,0 -1.50642,0.66708 -1.50642,1.85795 0,0.53209 -0.30577,0.84259 -1.27151,1.29118 -1.6834,0.78193 -2.09118,1.62751 -1.86127,3.85952 0.45818,4.44796 4.11395,8.24025 7.9498,8.24668 0.9216,10e-4 2.10245,-0.14599 2.62413,-0.32784 z m 16.24523,-9.73822 c 0.38996,-0.35291 0.54712,-0.92142 0.54712,-1.97911 0,-1.31275 0.12036,-1.59422 1.04317,-2.43948 1.34664,-1.23347 1.56811,-2.38824 0.91837,-4.78857 -0.36768,-1.35832 -0.80271,-2.17501 -1.5384,-2.88807 -0.90319,-0.8754 -1.25667,-1.0089 -2.9584,-1.11726 -1.66475,-0.106 -2.11374,-0.0169 -3.23907,0.64256 -3.51619,2.06062 -4.68144,5.19561 -1.8363,4.94038 1.01102,-0.0907 1.22309,0.0119 1.80884,0.8751 0.37257,0.54905 0.82311,1.92384 1.02741,3.13509 0.29997,1.77841 0.53573,2.32911 1.34249,3.13587 1.07831,1.07831 2.04793,1.24082 2.88477,0.48349 z"
         style="opacity:1;fill:none;fill-opacity:1;fill-rule:evenodd;stroke:none;stroke-width:0.02261511;stroke-linecap:round;stroke-linejoin:round;stroke-miterlimit:4;stroke-dasharray:none;stroke-dashoffset:0;stroke-opacity:1" />
      <ellipse
         ry="13.971349"
         rx="14.109874"
         cy="122.83824"
         cx="78.598534"
         id="path992"
         style="opacity:1;fill:url(#linearGradient1000);fill-opacity:1;fill-rule:evenodd;stroke:none;stroke-width:0.01914999;stroke-linecap:round;stroke-linejoin:round;stroke-miterlimit:4;stroke-dasharray:none;stroke-dashoffset:0;stroke-opacity:1" />
      <g
         style="fill:none;fill-opacity:1;stroke-width:0.2;stroke-miterlimit:4;stroke-dasharray:none"
         id="g945">
        <path
           style="fill:none;fill-opacity:1;stroke:#000000;stroke-width:0;stroke-linecap:butt;stroke-linejoin:miter;stroke-miterlimit:4;stroke-dasharray:none;stroke-opacity:1"
           d="m 72.389792,112.04784 c 1.218482,-0.50723 2.559352,-1.42467 4.396652,-1.27671 0.460636,0.0371 1.079128,0.39141 1.251046,0.59744 0.304135,0.36448 0.309834,0.80021 0.11103,0.65949 -0.475262,-0.3364 -1.425465,-0.79059 -2.236208,-0.73222 -0.650002,0.0468 -1.844151,0.29702 -1.998734,0.9301 -0.06653,0.27248 0.07545,0.55796 0.336422,0.45516 0.819312,-0.32274 1.915215,-0.55651 2.533048,-0.19789 0.410841,0.23847 0.649297,0.80864 0.771789,1.3061 0.158848,0.64511 -0.754573,1.95214 -0.09895,2.03832 0.597008,0.0785 0.741977,-1.19328 0.940346,-1.85867 0.127198,-0.42667 -0.24137,-1.02506 0.148075,-1.32744 0.773656,-0.6007 2.059066,-0.50653 2.909047,-0.0198 0.737353,0.42225 1.349185,1.24376 1.187368,2.0779 -0.149403,0.77015 -1.056053,1.2015 -1.741472,1.58315 -0.503489,0.28035 -1.402939,-0.0397 -1.662314,0.47495 -0.202935,0.40263 0.124226,0.98317 0.474946,1.26652 0.560208,0.4526 2.137262,0.31663 2.137262,0.31663 0,0 1.562896,-0.48192 2.216417,-0.94989 0.577237,-0.41335 0.882903,-1.1245 1.424839,-1.58315 0.262607,-0.22225 0.527303,-0.53382 0.870736,-0.55411 0.789322,-0.0466 1.53749,0.51381 2.137262,1.02905 0.921544,0.79167 1.570018,1.89545 2.058101,3.008 0.424284,0.96712 0.71242,3.08715 0.71242,3.08715 0,0 -1.046194,-2.38788 -1.978943,-3.24547 -0.608063,-0.55906 -1.399592,-0.98539 -2.21642,-1.10821 -0.95229,-0.14319 -1.932438,0.18164 -2.849679,0.47495 -1.146482,0.36661 -2.08877,1.25017 -3.245469,1.58315 -0.714038,0.20555 -1.496372,0.42088 -2.216417,0.23748 -0.40429,-0.10298 -0.758253,-0.39505 -1.029052,-0.71242 -0.474942,-0.55662 -0.454588,-2.00993 -0.949894,-1.97895 -0.615111,0.0385 -0.329112,1.8921 0.07916,2.69137 0.39372,0.77079 1.22393,1.35231 2.058101,1.58315 1.100866,0.30464 2.321628,-0.0302 3.403785,-0.39578 0.930317,-0.31428 1.632831,-1.11174 2.53305,-1.504 0.85727,-0.37355 1.756361,-0.77686 2.691365,-0.79158 0.431407,-0.007 0.894551,0.0853 1.252665,0.32597 1.034459,0.69515 1.802007,1.82731 2.23892,2.99455 0.30826,0.82354 0.262264,1.7539 0.195905,2.63073 -0.113396,1.49835 -0.595109,3.19172 -1.007515,4.39388 -0.412406,1.20216 -1.315365,2.82664 -1.315365,2.82664 0,0 1.509218,-1.63421 1.959054,-2.63073 0.87599,-1.94058 1.466664,-3.76934 1.318762,-6.24977 -0.0901,-1.51103 -0.605087,-4.08568 -1.318762,-5.4206 -0.900541,-1.68445 -2.127089,-3.24629 -3.610258,-4.44985 -1.840169,-1.49326 -4.040038,-2.61778 -6.32495,-3.24644 -1.577161,-0.43393 -3.279338,-0.54627 -4.897638,-0.30785 -1.565215,0.23059 -3.074804,0.8687 -4.449854,1.6512 -0.27098,0.15421 -0.720959,0.27601 -0.727649,0.58772 -0.0029,0.13371 0.1689,0.24452 0.301022,0.26526 0.440703,0.0692 1.226948,-0.53448 1.226948,-0.53448 z"
           id="path883"
           inkscape:connector-curvature="0"
           sodipodi:nodetypes="csssssssssasssssscssssscssssssssssssssszcssssssaaac" />
        <path
           style="fill:none;fill-opacity:1;stroke:#000000;stroke-width:0;stroke-linecap:butt;stroke-linejoin:miter;stroke-miterlimit:4;stroke-dasharray:none;stroke-opacity:1"
           d="m 67.580956,117.66804 c 0.660662,0.14666 0.05832,1.45526 0.474946,1.99874 0.387871,0.50598 1.018635,0.81568 1.682104,0.91031 0.568781,0.0811 1.002673,-0.0945 1.523786,-0.33642 0.405662,-0.18834 0.708703,-0.31319 0.910316,-0.71242 0.214118,-0.424 -0.05771,-0.93336 0.178105,-1.34568 0.107275,-0.18757 0.459586,-0.45993 0.672843,-0.49474 0.413803,-0.0675 0.856599,0.0805 1.226944,0.27705 0.3916,0.20785 0.969682,0.91032 0.969682,0.91032 0,0 0.501972,0.49915 0.474949,0.81137 -0.01937,0.22383 -0.213096,0.48182 -0.43537,0.51452 -0.311348,0.0458 -0.485015,-0.44341 -0.791577,-0.51452 -0.213604,-0.0495 -0.478375,0.0851 -0.65305,0.21763 -0.233233,0.17698 -0.172677,0.43013 -0.336421,0.67284 -0.305224,0.45243 -0.715383,0.84222 -1.167577,1.14779 -0.423434,0.28613 -0.899035,0.54194 -1.405051,0.61347 -0.500676,0.0708 -1.042354,0.008 -1.503997,-0.19789 -0.563727,-0.25195 -1.115391,-0.70753 -1.503999,-1.18737 -0.302835,-0.37393 -0.458879,-0.8244 -0.593684,-1.28631 -0.137066,-0.46966 -0.230812,-0.99327 -0.09895,-1.46442 0.05869,-0.20971 0.163404,-0.58146 0.376001,-0.53427 z"
           id="path885"
           inkscape:connector-curvature="0"
           sodipodi:nodetypes="sasssssscssssssssssss" />
        <path
           style="fill:none;fill-opacity:1;stroke:#000000;stroke-width:0;stroke-linecap:butt;stroke-linejoin:miter;stroke-miterlimit:4;stroke-dasharray:none;stroke-opacity:1"
           d="m 70.905583,118.34088 c 0.02238,0.26439 0.202408,0.35343 0.376,0.5541 0.09465,0.10942 0.406456,0.25152 0.395787,0.3958 -0.01538,0.20803 -0.31382,0.29937 -0.514524,0.35621 -0.355933,0.10081 -0.767479,0.0847 -1.10821,-0.0594 -0.331059,-0.13997 -0.698169,-0.44206 -0.910315,-0.73221 -0.275196,-0.37638 -0.485092,-0.68414 -0.534314,-1.14779 -0.02787,-0.26255 -0.08183,-0.66438 0.09895,-0.91031 0.148972,-0.20265 0.535663,-0.37206 0.691636,-0.30165 0.37918,0.17117 -0.0087,-0.0972 0.0031,-0.33243 0.0099,-0.19873 0.115575,-0.43961 0.359046,-0.44536 0.389234,-0.009 0.503737,0.29629 0.527395,0.42601 0.02522,0.13825 -0.181108,0.41732 -0.496365,0.411 -0.42463,-0.009 0.241128,0.23139 0.289856,0.23183 0.248299,0.002 0.607249,0.0283 0.782385,-0.14772 0.04857,-0.0488 0.106571,-0.14774 0.05937,-0.19789 -0.07896,-0.0839 -0.235413,0.13449 -0.336421,0.0791 -0.122559,-0.0672 -0.144224,-0.25613 -0.138525,-0.39579 0.0053,-0.12982 0.04937,-0.2854 0.158316,-0.3562 0.110622,-0.0719 0.291301,-0.0806 0.395788,0 0.102643,0.0791 0.01722,0.27542 0.09895,0.376 0.0372,0.0458 0.102707,0.0988 0.158313,0.0791 0.150265,-0.0532 0.06884,-0.34179 0.197895,-0.43537 0.24179,-0.17533 0.592679,-0.12101 0.890527,-0.0989 0.231368,0.0172 0.470842,-0.007 0.653051,0.11873 0.2413,0.16621 0.370509,0.51551 0.455157,0.752 0.07176,0.20048 0.03784,0.40054 0.03958,0.61347 6.13e-4,0.0752 0.01298,0.19714 -0.05937,0.21769 -0.130196,0.037 -0.176147,-0.2158 -0.296842,-0.27705 -0.125752,-0.0638 -0.164078,-0.12674 -0.296841,-0.0792 -0.09701,0.0347 -0.214786,0.22183 -0.316632,0.23747 -0.108515,0.0167 -0.256711,-0.0702 -0.277053,-0.1781 -0.04376,-0.2321 0.322466,-0.29953 0.296841,-0.53432 -0.01723,-0.15793 -0.0788,-0.34844 -0.237471,-0.35621 -0.179229,-0.009 -0.44219,0.17636 -0.554107,0.31663 -0.12533,0.15708 0.07792,0.51704 -0.01979,0.69264 -0.117462,0.21107 -0.3934,0.24615 -0.514525,0.45515 -0.12431,0.21449 -0.337544,0.42594 -0.31663,0.67297 z"
           id="path887"
           inkscape:connector-curvature="0"
           sodipodi:nodetypes="cssssssassssssssssssssssssssssssssssssc" />
        <path
           style="fill:none;fill-opacity:1;stroke:#000000;stroke-width:0;stroke-linecap:butt;stroke-linejoin:miter;stroke-miterlimit:4;stroke-dasharray:none;stroke-opacity:1"
           d="m 71.022745,115.16469 c 0.03389,0.13683 0.208741,0.31338 0.342835,0.35683 0.2804,0.0909 0.611352,-0.0222 0.867581,-0.16791 0.276717,-0.15734 0.559004,-0.3929 0.755638,-0.66469 0.111469,-0.15407 0.246827,-0.34117 0.22389,-0.52474 -0.01597,-0.12781 -0.159994,-0.23664 -0.286861,-0.25888 -0.322498,-0.0565 -0.609099,0.16266 -0.902564,0.30785 -0.288602,0.14278 -0.653386,0.29006 -0.839596,0.55274 -0.08385,0.11829 -0.195786,0.25807 -0.160923,0.3988 z"
           id="path889"
           inkscape:connector-curvature="0"
           sodipodi:nodetypes="sssasssss" />
        <path
           style="fill:none;fill-opacity:1;stroke:#000000;stroke-width:0;stroke-linecap:butt;stroke-linejoin:miter;stroke-miterlimit:4;stroke-dasharray:none;stroke-opacity:1"
           d="m 73.492556,114.98279 c 0.174211,0.14433 0.351913,-0.0699 0.538739,-0.021 0.18827,0.0493 0.293384,0.31095 0.384815,0.48276 0.210592,0.39572 0.122099,0.89663 0.32884,1.29438 0.08372,0.16107 0.200164,0.2611 0.454781,0.38482 0.119864,0.0582 0.321062,0.0265 0.419799,-0.063 0.247194,-0.22407 0.0516,-0.73481 0.209902,-1.0285 0.125559,-0.23293 0.358478,-0.18625 0.468775,-0.42679 0.154377,-0.33667 0.03081,-0.86763 -0.09096,-1.21742 -0.101029,-0.29022 -0.254655,-0.50588 -0.517751,-0.66468 -0.284542,-0.17174 -0.719481,-0.19721 -1.042497,-0.11898 -0.24339,0.0589 -0.496565,0.22763 -0.68567,0.3918 -0.234964,0.20399 -0.517255,0.44029 -0.594713,0.74165 -0.01184,0.0461 0.0893,0.21455 0.125935,0.24491 z"
           id="path891"
           inkscape:connector-curvature="0"
           sodipodi:nodetypes="ssssssssssssss" />
        <path
           style="fill:none;fill-opacity:1;stroke:#000000;stroke-width:0;stroke-linecap:butt;stroke-linejoin:miter;stroke-miterlimit:4;stroke-dasharray:none;stroke-opacity:1"
           d="m 85.022994,121.86047 c -0.19219,0.32437 -0.840091,0.49885 -1.105469,1.04949 -0.189103,0.39238 -0.201015,0.97778 -0.195903,1.41332 0.0062,0.52778 0.07169,1.08121 0.30785,1.55325 0.221674,0.44308 0.540023,0.90597 0.993521,1.10547 0.435514,0.19159 0.968733,0.11283 1.427311,-0.014 0.364702,-0.10087 0.522575,-0.39817 0.881577,-0.51775 0.195971,-0.0653 0.454009,-0.15177 0.643688,-0.07 0.257,0.1108 0.391428,0.36285 0.475772,0.6297 0.135015,0.42717 0.02255,0.86302 -0.06997,1.30137 -0.125747,0.59579 -0.246324,1.1991 -0.559728,1.72117 -0.172135,0.28674 -0.701293,0.44018 -0.643692,0.76963 0.02232,0.12766 0.20656,0.20506 0.335838,0.19591 0.539905,-0.0382 0.920914,-0.59677 1.273387,-1.00752 0.510133,-0.59448 0.835911,-1.33049 1.161439,-2.04301 0.365994,-0.80109 0.659967,-1.54882 0.783622,-2.42083 0.123328,-0.86971 0.127987,-1.85979 -0.125939,-2.7007 -0.18732,-0.62034 -0.499146,-1.16033 -0.979527,-1.59523 -0.399214,-0.36142 -0.875334,-0.63142 -1.399324,-0.75564 -0.61767,-0.14643 -1.075485,-0.20231 -1.693185,-0.056 -0.424544,0.10056 -0.752846,0.0328 -1.203418,0.55973 -0.356619,0.4171 -0.115664,0.55727 -0.307854,0.88165 z"
           id="path893"
           inkscape:connector-curvature="0"
           sodipodi:nodetypes="csssssssssssssssssssszc" />
        <path
           style="fill:none;fill-opacity:1;stroke:#000000;stroke-width:0;stroke-linecap:butt;stroke-linejoin:miter;stroke-miterlimit:4;stroke-dasharray:none;stroke-opacity:1"
           d="m 69.630419,126.66016 c 0.912723,10e-4 1.545704,0.37913 2.434825,0.36381 0.931554,-0.0161 1.961723,-0.29255 2.84063,-0.6017 0.756466,-0.26609 1.297908,-0.69542 1.98704,-1.10547 0.578295,-0.34409 1.196985,-0.80341 1.80513,-1.09148 0.411848,-0.1748 1.069989,-0.32866 1.385332,-0.042 0.14116,0.1387 0.144947,0.39946 0.08396,0.58772 -0.179937,0.55545 -0.742354,0.91994 -1.217414,1.25939 -0.74193,0.53013 -1.614088,0.86611 -2.476804,1.16145 -0.764416,0.26169 -1.562326,0.43818 -2.364859,0.53174 -0.847898,0.0988 -1.717243,0.15903 -2.560767,0.028 -0.558239,-0.0867 -1.093668,-0.30076 -1.609223,-0.53174 -0.255546,-0.11449 -0.725269,-0.13979 -0.727649,-0.4198 -6.93e-4,-0.0816 0.338211,-0.14002 0.419799,-0.13989 z"
           id="path895"
           inkscape:connector-curvature="0"
           sodipodi:nodetypes="ssssccssssssss" />
        <path
           style="fill:none;fill-opacity:1;stroke:#000000;stroke-width:0;stroke-linecap:butt;stroke-linejoin:miter;stroke-miterlimit:4;stroke-dasharray:none;stroke-opacity:1"
           d="m 69.098672,129.51478 c 0.441996,0.14844 0.858228,0.38402 1.315369,0.47576 0.746335,0.14977 1.540737,0.28974 2.280898,0.11195 0.820759,-0.19715 1.51085,-1.03875 2.196942,-1.25939 0.454773,-0.14625 -0.302384,0.93942 -0.629698,1.28738 -0.382137,0.40624 -0.908093,0.71779 -1.455298,0.8256 -0.650515,0.12817 -1.333427,-0.0773 -1.973049,-0.25188 -0.558357,-0.1524 -1.249512,-0.4329 -1.595231,-0.68567 -0.345719,-0.25277 -0.660448,-0.45416 -0.545735,-0.6297 0.114713,-0.17554 0.271538,0.0809 0.405802,0.12595 z"
           id="path897"
           inkscape:connector-curvature="0"
           sodipodi:nodetypes="ssasaaazzs" />
        <path
           style="fill:none;fill-opacity:1;stroke:#000000;stroke-width:0;stroke-linecap:butt;stroke-linejoin:miter;stroke-miterlimit:4;stroke-dasharray:none;stroke-opacity:1"
           d="m 77.08882,129.64071 c -0.110808,0.204 -0.175718,0.60833 -0.195906,0.8396 -0.03947,0.4521 0.06863,0.93538 0.293859,1.32936 0.275174,0.48135 0.780947,0.79151 1.217412,1.13345 0.355425,0.27845 0.813936,0.40104 1.133453,0.74164 0.319517,0.3406 0.527123,0.8144 0.713656,1.2594 0.170656,0.40712 0.01438,1.00364 0.363826,1.27338 0.332397,0.25657 0.865953,0.17471 1.259392,0.028 0.501253,-0.18691 0.832161,-0.6793 1.189427,-1.07748 0.477283,-0.53195 0.93949,-1.09609 1.259393,-1.73517 0.246987,-0.49342 0.451396,-1.03078 0.489762,-1.58123 0.04041,-0.57985 0.04983,-1.24246 -0.279863,-1.72117 -0.247764,-0.35975 -0.747702,-0.5578 -1.133454,-0.65768 -0.461379,-0.11947 -0.773887,0.31535 -1.231408,0.18187 -0.707612,-0.20644 -1.427309,-1.10547 -1.427309,-1.10547 0,0 -2.010242,-0.44727 -2.588753,-0.15395 -0.520457,0.26389 -0.784955,0.73269 -1.063487,1.24545 z"
           id="path899"
           inkscape:connector-curvature="0"
           sodipodi:nodetypes="sssszssssssssscss" />
        <ellipse
           style="display:inline;fill:none;fill-opacity:1;fill-rule:evenodd;stroke:#012e48;stroke-width:0.40000001;stroke-linecap:round;stroke-linejoin:round;stroke-miterlimit:4;stroke-dasharray:none;stroke-dashoffset:16.89448738;stroke-opacity:1"
           id="path2265"
           cx="78.430054"
           cy="123.08369"
           rx="14.150043"
           ry="14.102799" />
      </g>
      <path
         transform="scale(0.26458333)"
         inkscape:connector-curvature="0"
         id="path957"
         d="m 291.40742,518.12975 c -21.25328,-2.31944 -38.84431,-16.28265 -45.47429,-36.09605 -3.58786,-10.72216 -3.68446,-22.28184 -0.27475,-32.87775 6.09745,-18.94822 21.92624,-32.71686 41.75384,-36.31947 3.61187,-0.65626 10.86236,-0.87843 14.61605,-0.44785 21.07121,2.41703 38.38627,16.35618 44.99473,36.22213 2.02583,6.08994 2.39751,8.60238 2.4121,16.30525 0.0105,5.52885 -0.0972,7.45679 -0.54806,9.81043 -0.30861,1.61112 -0.62075,2.86968 -0.69363,2.7968 -0.0729,-0.0729 0.0298,-1.52571 0.22824,-3.22849 0.91168,-7.82378 -1.16147,-20.4329 -4.49342,-27.32948 -1.40747,-2.91323 -4.28766,-7.34748 -6.60709,-10.17209 -2.10953,-2.56897 -6.40177,-6.7456 -8.81553,-8.57804 -7.33106,-5.56553 -17.13549,-10.09301 -25.87898,-11.95037 -2.59402,-0.55105 -4.10578,-0.6684 -8.67619,-0.67353 -6.3306,-0.007 -9.61514,0.53253 -14.64681,2.40635 -4.37037,1.62754 -11.06096,5.10732 -11.4464,5.95327 -0.82935,1.82022 1.6849,2.19932 4.27074,0.64394 2.2449,-1.3503 8.69733,-4.24047 11.05342,-4.95105 4.62212,-1.39398 8.50582,-1.08144 10.86669,0.87451 1.05297,0.87238 1.90159,2.25867 1.5797,2.58056 -0.074,0.074 -0.71722,-0.20385 -1.42947,-0.61736 -3.25981,-1.89252 -6.48772,-2.38267 -10.09365,-1.53269 -3.41954,0.80604 -5.37886,2.49747 -4.92103,4.2482 0.25651,0.9809 0.93086,1.05038 3.07118,0.31643 1.44583,-0.4958 2.66497,-0.67781 4.56716,-0.68186 3.06716,-0.007 3.82277,0.3948 5.08802,2.70234 1.21833,2.22198 1.27264,3.0738 0.40016,6.2764 -0.91005,3.34049 -0.74711,4.12716 0.82287,3.97271 1.21701,-0.11972 1.76482,-1.0634 2.74904,-4.73556 0.59198,-2.2087 0.72039,-3.23333 0.5804,-4.63126 -0.16296,-1.62738 -0.11322,-1.85701 0.5325,-2.45811 1.73489,-1.61502 5.347,-2.01889 8.72499,-0.97554 3.4911,1.0783 6.48041,4.50669 6.48041,7.43229 0,1.58641 -0.53444,2.6344 -2.03461,3.98972 -2.22922,2.01396 -4.75269,3.18327 -7.54362,3.49552 -2.07914,0.23261 -2.61969,0.40379 -3.08337,0.97641 -1.17038,1.44536 0.0359,4.39321 2.32389,5.67916 0.96421,0.54192 1.79378,0.69419 4.35706,0.79981 2.86482,0.11803 3.37828,0.0543 5.39611,-0.66944 1.22651,-0.43993 3.22535,-1.28943 4.44186,-1.88778 1.87205,-0.92077 2.49135,-1.43535 4.03142,-3.34974 2.25865,-2.80761 4.48331,-4.95132 5.6321,-5.42717 2.59118,-1.0733 8.26256,2.32132 11.87153,7.10576 2.46374,3.2662 4.75463,8.02806 5.71207,11.87314 0.45658,1.83363 0.91584,3.93971 1.02059,4.68018 0.18007,1.27296 0.10414,1.18333 -1.39384,-1.64548 -3.73536,-7.05393 -6.7895,-10.07705 -11.68747,-11.56876 -1.70687,-0.51984 -2.55485,-0.5978 -5.08604,-0.4676 -4.24547,0.21838 -8.31992,1.58588 -13.90021,4.6653 -7.70171,4.25012 -12.87878,5.21186 -16.31723,3.03126 -1.75269,-1.11153 -2.64997,-2.52983 -3.59513,-5.6827 -0.95755,-3.19424 -1.33361,-3.74346 -2.38284,-3.48012 -0.96002,0.24095 -1.2619,1.15055 -1.19155,3.59034 0.25128,8.71433 6.63335,14.12909 15.36303,13.03448 4.41792,-0.55396 8.22114,-2.00497 12.0842,-4.61038 4.99253,-3.36718 11.21138,-5.84171 14.68104,-5.84171 3.03386,0 5.93615,1.68113 8.71189,5.04628 1.9931,2.41634 4.14569,6.52634 4.74117,9.05246 1.62379,6.88838 -1.13846,20.55289 -6.27502,31.04172 -1.20513,2.46085 -2.11323,4.55219 -2.01801,4.64741 0.0952,0.0952 -0.86282,1.17926 -2.12898,2.40898 -8.09767,7.86463 -17.83154,12.81965 -28.91034,14.7168 -2.52213,0.4319 -11.31375,0.76198 -13.61264,0.51109 z m 17.54432,-2.85011 c 1.53501,-0.4599 3.05734,-1.80383 5.86472,-5.17744 4.42544,-5.31802 5.82277,-8.45058 5.87648,-13.17403 0.0293,-2.57669 -0.0634,-3.18955 -0.66787,-4.41712 -1.19134,-2.41927 -4.54515,-3.90278 -6.92492,-3.06315 -0.70081,0.24726 -1.53985,0.44956 -1.86452,0.44956 -1.03519,0 -2.65491,-0.95641 -4.47768,-2.64398 -1.62337,-1.50295 -1.95075,-1.67193 -3.92357,-2.02518 -1.18383,-0.21197 -3.21113,-0.39249 -4.50511,-0.40114 -2.82848,-0.0189 -4.15288,0.59098 -5.57084,2.56545 -1.64534,2.29111 -2.21396,3.92335 -2.22751,6.39418 -0.021,3.82894 1.42236,5.95621 6.08165,8.96333 1.25088,0.80731 2.8284,1.94886 3.50562,2.53676 1.51279,1.31327 3.06665,4.36584 3.40359,6.68636 0.32861,2.26314 0.52517,2.69453 1.45896,3.2019 0.96699,0.52541 2.43702,0.56409 3.971,0.1045 z M 277.59156,494.2749 c 2.56351,-1.25422 6.55048,-5.98992 6.07847,-7.21998 -0.24193,-0.63046 -1.15308,-0.22434 -4.41009,1.96566 -3.72012,2.50141 -4.42148,2.75967 -7.44875,2.74281 -3.26671,-0.0182 -6.25191,-0.66157 -9.45713,-2.03824 -1.625,-0.69796 -2.66035,-0.99376 -2.8421,-0.81201 -1.17943,1.17943 3.55032,3.99361 9.30744,5.53789 3.93145,1.05457 6.35621,1.00588 8.77216,-0.17613 z m 54.97348,0.32948 c 3.61019,-2.43291 8.89139,-12.11146 10.27505,-18.83051 0.55177,-2.67938 0.62314,-7.88378 0.13947,-10.16998 -0.79339,-3.75015 -2.95301,-6.99384 -5.92708,-8.90229 -4.09239,-2.62608 -11.37474,-2.65306 -14.13886,-0.0524 -0.86729,0.81602 -1.21049,1.41982 -1.37855,2.42537 -0.19484,1.16576 -0.45292,1.52347 -1.99598,2.76659 -2.87939,2.31969 -3.00064,2.63144 -3.00064,7.71534 0,4.30287 0.01,4.36777 0.97523,6.32843 2.51323,5.10508 6.59377,6.02226 11.88947,2.6724 0.49365,-0.31226 1.33481,-0.65904 1.86925,-0.77062 0.82081,-0.17137 1.10777,-0.0668 1.84787,0.67329 0.50658,0.50658 0.96815,1.36653 1.09425,2.03872 0.26848,1.43113 -0.27747,4.84503 -1.2873,8.04951 -0.63146,2.00385 -0.9895,2.61936 -2.21348,3.80532 -1.50672,1.45989 -1.71807,1.9532 -1.10116,2.57011 0.56224,0.56224 1.85121,0.42284 2.95246,-0.31929 z m -53.21131,-11.61947 c 8.13852,-0.87409 16.94701,-4.28823 21.57587,-8.36271 1.6705,-1.47044 2.29539,-2.55664 2.29539,-3.98997 0,-1.32428 -0.86006,-1.97648 -2.60638,-1.97648 -1.90659,0 -3.76451,0.83269 -8.5098,3.81397 -6.28916,3.95122 -7.16585,4.43886 -9.48294,5.27468 -2.9647,1.06942 -5.17792,1.60338 -8.17386,1.972 -2.34492,0.28852 -2.95949,0.2467 -6.38172,-0.43424 -4.37838,-0.87119 -5.49632,-0.92524 -6.29921,-0.30453 -0.56991,0.44059 -0.56757,0.46013 0.12555,1.04712 0.38847,0.32899 0.87481,0.59816 1.08077,0.59816 0.20597,0 1.35214,0.40316 2.54706,0.8959 4.20543,1.73418 7.79247,2.11446 13.82927,1.4661 z m -7.92906,-21.66066 c 2.71258,-1.34063 6.47108,-4.84724 6.79985,-6.34415 0.24057,-1.09532 1.21106,-2.06105 2.35713,-2.34557 0.66328,-0.16467 1.01287,-0.05 1.64548,0.53962 1.38817,1.29389 2.08587,1.53075 2.91284,0.9889 0.82639,-0.54148 1.1837,-1.61544 0.90581,-2.72263 -0.31711,-1.26347 -4.4682,-5.36571 -6.17074,-6.09812 -2.49416,-1.07296 -5.02699,-0.77039 -6.29056,0.75147 -0.25602,0.30834 -0.4939,1.5136 -0.5941,3.01016 -0.14804,2.21113 -0.26314,2.59614 -1.00877,3.37442 -0.46292,0.48318 -1.73402,1.30981 -2.82468,1.83697 -3.85156,1.8616 -7.9146,1.41793 -10.84714,-1.18448 l -1.28436,-1.13976 -0.16927,-3.26085 c -0.0931,-1.79347 -0.2646,-3.41289 -0.38111,-3.59871 -0.36812,-0.5871 -1.36234,-0.66817 -1.83183,-0.14939 -2.10423,2.32515 -0.70458,9.48051 2.5513,13.04297 4.22733,4.62538 9.20956,5.78047 14.23015,3.29915 z m -1.74606,-9.15481 c 0.52167,-0.18186 1.08554,-0.58672 1.25304,-0.8997 0.25616,-0.47863 0.065,-0.78968 -1.20303,-1.95775 -0.82917,-0.7638 -1.50758,-1.65325 -1.50758,-1.97657 0,-0.63517 1.17866,-2.91317 1.5073,-2.91317 0.11022,0 0.55892,-0.33226 0.99711,-0.73836 0.68652,-0.63625 0.77104,-0.89882 0.61116,-1.89866 -0.16365,-1.02338 -0.0872,-1.23768 0.6481,-1.81604 0.45851,-0.36066 1.04458,-0.61581 1.3024,-0.56701 0.63348,0.11992 0.76319,1.53561 0.18469,2.01573 -0.63446,0.52655 -0.58311,1.42359 0.10249,1.79051 0.43295,0.23171 0.74419,0.16326 1.3211,-0.29054 l 0.75472,-0.59366 0.91662,0.77128 c 1.24606,1.04849 1.64041,0.71485 1.44082,-1.21901 -0.18297,-1.77283 -1.13877,-3.87024 -1.96525,-4.31256 -0.30459,-0.16301 -1.45394,-0.3886 -2.55409,-0.50132 l -2.0003,-0.20494 1.20336,-0.53875 c 0.66184,-0.29632 1.81235,-1.16537 2.55668,-1.93123 2.09621,-2.15684 2.17022,-3.77521 0.18165,-3.97224 -1.9279,-0.19101 -7.20856,3.17277 -7.20856,4.59187 0,0.69271 1.36749,1.93266 2.15545,1.95442 0.67729,0.0187 0.67801,0.0225 0.052,0.27532 -0.3491,0.141 -0.7219,0.60368 -0.82844,1.02817 -0.25457,1.01426 -0.71627,0.98612 -0.83559,-0.0509 -0.083,-0.72159 -0.22253,-0.82275 -1.13459,-0.82275 -0.8513,0 -1.08973,0.14161 -1.31449,0.78073 -0.39745,1.13014 -0.0157,2.36065 0.73228,2.36065 0.33568,0 0.52711,0.13463 0.42541,0.29918 -0.10169,0.16455 -0.84216,0.29918 -1.64548,0.29918 -0.80332,0 -1.54379,-0.13463 -1.64548,-0.29918 -0.1017,-0.16455 -0.0193,-0.29918 0.18317,-0.29918 0.57737,0 1.46231,-0.93332 1.46231,-1.54226 0,-0.8362 -1.08733,-1.74871 -2.08373,-1.74871 -0.96555,0 -1.50642,0.66708 -1.50642,1.85795 0,0.53209 -0.30577,0.84259 -1.27151,1.29118 -1.6834,0.78193 -2.09118,1.62751 -1.86127,3.85952 0.45818,4.44796 4.11395,8.24025 7.9498,8.24668 0.9216,10e-4 2.10245,-0.14599 2.62413,-0.32784 z m 16.24523,-9.73822 c 0.38996,-0.35291 0.54712,-0.92142 0.54712,-1.97911 0,-1.31275 0.12036,-1.59422 1.04317,-2.43948 1.34664,-1.23347 1.56811,-2.38824 0.91837,-4.78857 -0.36768,-1.35832 -0.80271,-2.17501 -1.5384,-2.88807 -0.90319,-0.8754 -1.25667,-1.0089 -2.9584,-1.11726 -1.66475,-0.106 -2.11374,-0.0169 -3.23907,0.64256 -3.51619,2.06062 -4.68144,5.19561 -1.8363,4.94038 1.01102,-0.0907 1.22309,0.0119 1.80884,0.8751 0.37257,0.54905 0.82311,1.92384 1.02741,3.13509 0.29997,1.77841 0.53573,2.32911 1.34249,3.13587 1.07831,1.07831 2.04793,1.24082 2.88477,0.48349 z"
         style="opacity:1;fill:url(#linearGradient980);fill-opacity:1;fill-rule:evenodd;stroke:none;stroke-width:0.37795275;stroke-linecap:round;stroke-linejoin:round;stroke-miterlimit:4;stroke-dasharray:none;stroke-dashoffset:0;stroke-opacity:1"
         inkscape:label="path957" />
      <g
         aria-label="34"
         style="font-style:normal;font-variant:normal;font-weight:bold;font-stretch:normal;font-size:4.23333311px;line-height:1.25;font-family:'PT Sans';-inkscape-font-specification:'PT Sans Bold';letter-spacing:0px;word-spacing:0px;fill:#000000;fill-opacity:1;stroke:none;stroke-width:0.26458332"
         id="text868">
        <path
           d="m 64.032205,151.79802 q 0.349956,0 0.530578,-0.18626 0.186267,-0.18627 0.186267,-0.45156 0,-0.32173 -0.191911,-0.47413 -0.191912,-0.1524 -0.603956,-0.1524 h -0.4064 v -0.38947 l 0.682978,-0.93133 0.321733,-0.254 -0.445911,0.0508 h -0.948267 v -0.62089 h 2.156178 v 0.40075 l -0.795867,1.0668 -0.248355,0.1524 v 0.0282 l 0.237067,-0.0339 q 0.197555,0.0169 0.372533,0.0903 0.180622,0.0734 0.310444,0.21449 0.135467,0.13547 0.214489,0.33867 0.07902,0.2032 0.07902,0.46849 0,0.33302 -0.112888,0.57573 -0.107245,0.24271 -0.3048,0.4064 -0.191912,0.16369 -0.451556,0.24271 -0.259644,0.079 -0.5588,0.079 -0.248356,0 -0.513644,-0.0452 -0.265289,-0.0452 -0.428978,-0.12983 l 0.197555,-0.6096 q 0.146756,0.0734 0.321734,0.11854 0.180622,0.0452 0.400755,0.0452 z"
           style="font-style:normal;font-variant:normal;font-weight:bold;font-stretch:normal;font-size:5.64444447px;font-family:'PT Sans';-inkscape-font-specification:'PT Sans, Bold';font-variant-ligatures:normal;font-variant-caps:normal;font-variant-numeric:normal;font-feature-settings:normal;text-align:start;writing-mode:lr-tb;text-anchor:start;stroke-width:0.26458332"
           id="path900"
           inkscape:connector-curvature="0" />
        <path
           d="m 68.990321,151.23922 h -0.620889 v 1.10067 h -0.682978 v -1.10067 h -1.710267 v -0.41769 l 1.789289,-2.46097 h 0.603956 v 2.29164 h 0.620889 z m -1.303867,-1.45062 0.0508,-0.47413 h -0.02258 l -0.191911,0.4064 -0.587022,0.762 -0.282222,0.21449 0.361244,-0.0452 h 0.671689 z"
           style="font-style:normal;font-variant:normal;font-weight:bold;font-stretch:normal;font-size:5.64444447px;font-family:'PT Sans';-inkscape-font-specification:'PT Sans, Bold';font-variant-ligatures:normal;font-variant-caps:normal;font-variant-numeric:normal;font-feature-settings:normal;text-align:start;writing-mode:lr-tb;text-anchor:start;stroke-width:0.26458332"
           id="path902"
           inkscape:connector-curvature="0" />
      </g>
      <g
         id="g884"
         transform="translate(0,-0.61570311)">
        <g
           aria-label="halle"
           style="font-style:normal;font-variant:normal;font-weight:bold;font-stretch:normal;font-size:4.23333311px;line-height:1.25;font-family:'PT Sans';-inkscape-font-specification:'PT Sans Bold';letter-spacing:0px;word-spacing:0px;fill:#000000;fill-opacity:1;stroke:none;stroke-width:0.26458332"
           id="text872">
          <path
             d="m 104.68045,146.63063 v -4.00755 q 0,-0.86078 -0.23989,-1.24178 -0.23989,-0.381 -0.87489,-0.381 -0.46567,0 -0.86078,0.32455 -0.381,0.31045 -0.508,0.80434 v 4.50144 h -1.83444 v -9.87778 h 1.83444 v 3.61245 h 0.0564 q 0.33866,-0.45156 0.83255,-0.71967 0.49389,-0.26811 1.25589,-0.26811 0.53622,0 0.94544,0.14111 0.40923,0.14111 0.67734,0.46567 0.28222,0.32455 0.40922,0.889 0.14111,0.55033 0.14111,1.36878 v 4.38855 z"
             style="font-style:normal;font-variant:normal;font-weight:bold;font-stretch:normal;font-size:14.11111069px;font-family:'PT Sans';-inkscape-font-specification:'PT Sans, Bold';font-variant-ligatures:normal;font-variant-caps:normal;font-variant-numeric:normal;font-feature-settings:normal;text-align:start;writing-mode:lr-tb;text-anchor:start;stroke-width:0.26458332"
             id="path871"
             inkscape:connector-curvature="0" />
          <path
             d="m 108.00957,139.9843 q 0.56444,-0.254 1.34055,-0.39511 0.77611,-0.15523 1.62278,-0.15523 0.73378,0 1.22767,0.18345 0.49388,0.16933 0.77611,0.49389 0.29633,0.32455 0.40922,0.77611 0.127,0.45155 0.127,1.016 0,0.62089 -0.0423,1.25589 -0.0423,0.62089 -0.0564,1.22766 0,0.60678 0.0423,1.18534 0.0423,0.56444 0.21167,1.07244 h -1.49578 l -0.29633,-0.97367 h -0.0706 q -0.28222,0.43745 -0.79022,0.762 -0.49389,0.31045 -1.28411,0.31045 -0.49389,0 -0.889,-0.14111 -0.39511,-0.15522 -0.67733,-0.42334 -0.28222,-0.28222 -0.43745,-0.64911 -0.15522,-0.381 -0.15522,-0.84666 0,-0.64911 0.28222,-1.08656 0.29634,-0.45155 0.83256,-0.71966 0.55033,-0.28223 1.29822,-0.381 0.762,-0.11289 1.69333,-0.0706 0.0988,-0.79022 -0.11288,-1.12889 -0.21167,-0.35278 -0.94545,-0.35278 -0.55033,0 -1.17122,0.11289 -0.60678,0.11289 -1.00189,0.29634 z m 2.32833,5.24933 q 0.55033,0 0.87489,-0.23989 0.32455,-0.254 0.47978,-0.53622 v -0.91722 q -0.43745,-0.0423 -0.84667,-0.0141 -0.39511,0.0282 -0.70556,0.127 -0.31044,0.0988 -0.49388,0.28222 -0.18345,0.18344 -0.18345,0.46567 0,0.39511 0.22578,0.62088 0.23989,0.21167 0.64911,0.21167 z"
             style="font-style:normal;font-variant:normal;font-weight:bold;font-stretch:normal;font-size:14.11111069px;font-family:'PT Sans';-inkscape-font-specification:'PT Sans, Bold';font-variant-ligatures:normal;font-variant-caps:normal;font-variant-numeric:normal;font-feature-settings:normal;text-align:start;writing-mode:lr-tb;text-anchor:start;stroke-width:0.26458332"
             id="path873"
             inkscape:connector-curvature="0" />
          <path
             d="m 116.94322,144.25996 q 0,0.49389 0.127,0.71967 0.127,0.22578 0.40922,0.22578 0.16934,0 0.32456,-0.0282 0.16933,-0.0282 0.40922,-0.127 l 0.19756,1.43933 q -0.22578,0.11289 -0.69145,0.22578 -0.46566,0.11289 -0.95955,0.11289 -0.80434,0 -1.22767,-0.36689 -0.42333,-0.381 -0.42333,-1.24178 v -8.46667 h 1.83444 z"
             style="font-style:normal;font-variant:normal;font-weight:bold;font-stretch:normal;font-size:14.11111069px;font-family:'PT Sans';-inkscape-font-specification:'PT Sans, Bold';font-variant-ligatures:normal;font-variant-caps:normal;font-variant-numeric:normal;font-feature-settings:normal;text-align:start;writing-mode:lr-tb;text-anchor:start;stroke-width:0.26458332"
             id="path875"
             inkscape:connector-curvature="0" />
          <path
             d="m 121.1049,144.25996 q 0,0.49389 0.127,0.71967 0.127,0.22578 0.40922,0.22578 0.16933,0 0.32456,-0.0282 0.16933,-0.0282 0.40922,-0.127 l 0.19755,1.43933 q -0.22577,0.11289 -0.69144,0.22578 -0.46567,0.11289 -0.95956,0.11289 -0.80433,0 -1.22766,-0.36689 -0.42334,-0.381 -0.42334,-1.24178 v -8.46667 h 1.83445 z"
             style="font-style:normal;font-variant:normal;font-weight:bold;font-stretch:normal;font-size:14.11111069px;font-family:'PT Sans';-inkscape-font-specification:'PT Sans, Bold';font-variant-ligatures:normal;font-variant-caps:normal;font-variant-numeric:normal;font-feature-settings:normal;text-align:start;writing-mode:lr-tb;text-anchor:start;stroke-width:0.26458332"
             id="path877"
             inkscape:connector-curvature="0" />
          <path
             d="m 129.02013,146.02385 q -0.42334,0.33867 -1.15711,0.57856 -0.71967,0.22578 -1.53811,0.22578 -1.70745,0 -2.49767,-0.98778 -0.79022,-1.00189 -0.79022,-2.73756 0,-1.86266 0.889,-2.794 0.889,-0.93133 2.49766,-0.93133 0.53623,0 1.04423,0.14111 0.508,0.14111 0.90311,0.46567 0.39511,0.32455 0.635,0.87489 0.23989,0.55033 0.23989,1.36877 0,0.29634 -0.0423,0.635 -0.0282,0.33867 -0.0988,0.70556 h -4.23333 q 0.0423,0.889 0.45156,1.34055 0.42333,0.45156 1.35466,0.45156 0.57856,0 1.03011,-0.16933 0.46567,-0.18345 0.70556,-0.36689 z m -2.62467,-5.17877 q -0.71967,0 -1.07244,0.43744 -0.33867,0.42333 -0.40923,1.143 h 2.62467 q 0.0564,-0.762 -0.23989,-1.17122 -0.28222,-0.40922 -0.90311,-0.40922 z"
             style="font-style:normal;font-variant:normal;font-weight:bold;font-stretch:normal;font-size:14.11111069px;font-family:'PT Sans';-inkscape-font-specification:'PT Sans, Bold';font-variant-ligatures:normal;font-variant-caps:normal;font-variant-numeric:normal;font-feature-settings:normal;text-align:start;writing-mode:lr-tb;text-anchor:start;stroke-width:0.26458332"
             id="path879"
             inkscape:connector-curvature="0" />
        </g>
        <g
           aria-label="saale"
           style="font-style:normal;font-variant:normal;font-weight:bold;font-stretch:normal;font-size:4.23333311px;line-height:1.25;font-family:'PT Sans';-inkscape-font-specification:'PT Sans Bold';letter-spacing:0px;word-spacing:0px;fill:#8f9199;fill-opacity:1;stroke:none;stroke-width:0.26458332"
           id="text878">
          <path
             d="m 133.50129,144.6833 q 0,-0.28222 -0.23989,-0.45156 -0.23989,-0.16933 -0.59267,-0.31044 -0.35277,-0.14111 -0.77611,-0.28222 -0.42333,-0.15523 -0.77611,-0.40923 -0.35278,-0.26811 -0.59267,-0.66322 -0.23988,-0.40922 -0.23988,-1.04422 0,-1.04422 0.62088,-1.59456 0.62089,-0.55033 1.79212,-0.55033 0.80433,0 1.45344,0.16933 0.64911,0.16934 1.016,0.381 l -0.40922,1.32645 q -0.32456,-0.127 -0.81845,-0.26811 -0.49389,-0.14111 -1.00189,-0.14111 -0.81844,0 -0.81844,0.635 0,0.254 0.23989,0.40922 0.23989,0.15522 0.59267,0.29633 0.35277,0.127 0.77611,0.28222 0.42333,0.15523 0.77611,0.40923 0.35278,0.23988 0.59266,0.635 0.23989,0.39511 0.23989,1.016 0,1.07244 -0.69144,1.69333 -0.67733,0.60678 -2.04611,0.60678 -0.74789,0 -1.41111,-0.19756 -0.64911,-0.18344 -1.05834,-0.43744 l 0.508,-1.36878 q 0.32456,0.18344 0.86078,0.36689 0.53622,0.16933 1.10067,0.16933 0.40922,0 0.64911,-0.15522 0.254,-0.15522 0.254,-0.52211 z"
             style="font-style:normal;font-variant:normal;font-weight:bold;font-stretch:normal;font-size:14.11111069px;font-family:'PT Sans';-inkscape-font-specification:'PT Sans, Bold';font-variant-ligatures:normal;font-variant-caps:normal;font-variant-numeric:normal;font-feature-settings:normal;text-align:start;writing-mode:lr-tb;text-anchor:start;fill:#8f9199;fill-opacity:1;stroke-width:0.26458332"
             id="path882"
             inkscape:connector-curvature="0" />
          <path
             d="m 136.49108,139.9843 q 0.56444,-0.254 1.34056,-0.39511 0.77611,-0.15523 1.62277,-0.15523 0.73378,0 1.22767,0.18345 0.49389,0.16933 0.77611,0.49389 0.29633,0.32455 0.40922,0.77611 0.127,0.45155 0.127,1.016 0,0.62089 -0.0423,1.25589 -0.0423,0.62089 -0.0564,1.22766 0,0.60678 0.0423,1.18534 0.0423,0.56444 0.21167,1.07244 h -1.49578 l -0.29634,-0.97367 h -0.0705 q -0.28222,0.43745 -0.79022,0.762 -0.49389,0.31045 -1.28411,0.31045 -0.49389,0 -0.889,-0.14111 -0.39512,-0.15522 -0.67734,-0.42334 -0.28222,-0.28222 -0.43744,-0.64911 -0.15522,-0.381 -0.15522,-0.84666 0,-0.64911 0.28222,-1.08656 0.29633,-0.45155 0.83255,-0.71966 0.55034,-0.28223 1.29823,-0.381 0.762,-0.11289 1.69333,-0.0706 0.0988,-0.79022 -0.11289,-1.12889 -0.21167,-0.35278 -0.94544,-0.35278 -0.55034,0 -1.17123,0.11289 -0.60677,0.11289 -1.00189,0.29634 z m 2.32833,5.24933 q 0.55034,0 0.87489,-0.23989 0.32456,-0.254 0.47978,-0.53622 v -0.91722 q -0.43744,-0.0423 -0.84667,-0.0141 -0.39511,0.0282 -0.70555,0.127 -0.31045,0.0988 -0.49389,0.28222 -0.18345,0.18344 -0.18345,0.46567 0,0.39511 0.22578,0.62088 0.23989,0.21167 0.64911,0.21167 z"
             style="font-style:normal;font-variant:normal;font-weight:bold;font-stretch:normal;font-size:14.11111069px;font-family:'PT Sans';-inkscape-font-specification:'PT Sans, Bold';font-variant-ligatures:normal;font-variant-caps:normal;font-variant-numeric:normal;font-feature-settings:normal;text-align:start;writing-mode:lr-tb;text-anchor:start;fill:#8f9199;fill-opacity:1;stroke-width:0.26458332"
             id="path884"
             inkscape:connector-curvature="0" />
          <path
             d="m 143.49151,139.9843 q 0.56445,-0.254 1.34056,-0.39511 0.77611,-0.15523 1.62278,-0.15523 0.73378,0 1.22766,0.18345 0.49389,0.16933 0.77612,0.49389 0.29633,0.32455 0.40922,0.77611 0.127,0.45155 0.127,1.016 0,0.62089 -0.0423,1.25589 -0.0423,0.62089 -0.0564,1.22766 0,0.60678 0.0423,1.18534 0.0423,0.56444 0.21167,1.07244 h -1.49578 l -0.29633,-0.97367 h -0.0706 q -0.28222,0.43745 -0.79022,0.762 -0.49389,0.31045 -1.28411,0.31045 -0.49389,0 -0.889,-0.14111 -0.39511,-0.15522 -0.67733,-0.42334 -0.28223,-0.28222 -0.43745,-0.64911 -0.15522,-0.381 -0.15522,-0.84666 0,-0.64911 0.28222,-1.08656 0.29634,-0.45155 0.83256,-0.71966 0.55033,-0.28223 1.29822,-0.381 0.762,-0.11289 1.69333,-0.0706 0.0988,-0.79022 -0.11289,-1.12889 -0.21166,-0.35278 -0.94544,-0.35278 -0.55033,0 -1.17122,0.11289 -0.60678,0.11289 -1.00189,0.29634 z m 2.32834,5.24933 q 0.55033,0 0.87489,-0.23989 0.32455,-0.254 0.47977,-0.53622 v -0.91722 q -0.43744,-0.0423 -0.84666,-0.0141 -0.39511,0.0282 -0.70556,0.127 -0.31044,0.0988 -0.49389,0.28222 -0.18344,0.18344 -0.18344,0.46567 0,0.39511 0.22578,0.62088 0.23989,0.21167 0.64911,0.21167 z"
             style="font-style:normal;font-variant:normal;font-weight:bold;font-stretch:normal;font-size:14.11111069px;font-family:'PT Sans';-inkscape-font-specification:'PT Sans, Bold';font-variant-ligatures:normal;font-variant-caps:normal;font-variant-numeric:normal;font-feature-settings:normal;text-align:start;writing-mode:lr-tb;text-anchor:start;fill:#8f9199;fill-opacity:1;stroke-width:0.26458332"
             id="path886"
             inkscape:connector-curvature="0" />
          <path
             d="m 152.42517,144.25996 q 0,0.49389 0.127,0.71967 0.127,0.22578 0.40922,0.22578 0.16934,0 0.32456,-0.0282 0.16933,-0.0282 0.40922,-0.127 l 0.19756,1.43933 q -0.22578,0.11289 -0.69145,0.22578 -0.46567,0.11289 -0.95955,0.11289 -0.80434,0 -1.22767,-0.36689 -0.42333,-0.381 -0.42333,-1.24178 v -8.46667 h 1.83444 z"
             style="font-style:normal;font-variant:normal;font-weight:bold;font-stretch:normal;font-size:14.11111069px;font-family:'PT Sans';-inkscape-font-specification:'PT Sans, Bold';font-variant-ligatures:normal;font-variant-caps:normal;font-variant-numeric:normal;font-feature-settings:normal;text-align:start;writing-mode:lr-tb;text-anchor:start;fill:#8f9199;fill-opacity:1;stroke-width:0.26458332"
             id="path888"
             inkscape:connector-curvature="0" />
          <path
             d="m 160.3404,146.02385 q -0.42333,0.33867 -1.15711,0.57856 -0.71967,0.22578 -1.53811,0.22578 -1.70744,0 -2.49767,-0.98778 -0.79022,-1.00189 -0.79022,-2.73756 0,-1.86266 0.889,-2.794 0.889,-0.93133 2.49767,-0.93133 0.53622,0 1.04422,0.14111 0.508,0.14111 0.90311,0.46567 0.39511,0.32455 0.635,0.87489 0.23989,0.55033 0.23989,1.36877 0,0.29634 -0.0423,0.635 -0.0282,0.33867 -0.0988,0.70556 h -4.23333 q 0.0423,0.889 0.45155,1.34055 0.42333,0.45156 1.35467,0.45156 0.57855,0 1.03011,-0.16933 0.46567,-0.18345 0.70555,-0.36689 z m -2.62466,-5.17877 q -0.71967,0 -1.07245,0.43744 -0.33867,0.42333 -0.40922,1.143 h 2.62467 q 0.0564,-0.762 -0.23989,-1.17122 -0.28223,-0.40922 -0.90311,-0.40922 z"
             style="font-style:normal;font-variant:normal;font-weight:bold;font-stretch:normal;font-size:14.11111069px;font-family:'PT Sans';-inkscape-font-specification:'PT Sans, Bold';font-variant-ligatures:normal;font-variant-caps:normal;font-variant-numeric:normal;font-feature-settings:normal;text-align:start;writing-mode:lr-tb;text-anchor:start;fill:#8f9199;fill-opacity:1;stroke-width:0.26458332"
             id="path890"
             inkscape:connector-curvature="0" />
        </g>
      </g>
    </g>
  </g>
</svg>
